<?xml version="1.0" encoding="UTF-8"?>
<svg width="16px" height="16px" viewBox="0 0 16 16" version="1.1" xmlns="http://www.w3.org/2000/svg" xmlns:xlink="http://www.w3.org/1999/xlink">
    <title></title>
    <g id="" stroke="none" stroke-width="1" fill="none" fill-rule="evenodd">
        <g id="" transform="translate(-124.000000, -354.000000)" fill="#FFFFFF" fill-rule="nonzero">
            <g id="" transform="translate(124.000000, 354.000000)">
                <rect id="" opacity="0" x="0" y="0" width="16" height="16"></rect>
                <path d="M8,8.72727273 C5.78181819,8.72727273 4,6.76727273 4,4.36363636 C4,1.95999998 5.78181819,0 8,0 C10.2181818,0 12,1.96 12,4.36363636 C12,6.76727272 10.2181818,8.72727273 8,8.72727273 Z M1.45454545,12.9090909 C1.45454545,11.202029 2.83839259,9.81818181 4.54545455,9.81818181 L11.4545455,9.81818181 C13.1616074,9.81818181 14.5454545,11.202029 14.5454545,12.9090909 C14.5454545,14.6161529 13.1616074,16 11.4545455,16 L4.54545455,16 C2.83922328,15.9979962 1.45654925,14.6153222 1.45454545,12.9090909 L1.45454545,12.9090909 Z" id=""></path>
            </g>
        </g>
    </g>
</svg>