<?xml version="1.0" encoding="UTF-8"?>
<svg width="15px" height="15px" viewBox="0 0 15 15" version="1.1" xmlns="http://www.w3.org/2000/svg" xmlns:xlink="http://www.w3.org/1999/xlink">
    <title>编组</title>
    <g id="2023.8.1-改动" stroke="none" stroke-width="1" fill="none" fill-rule="evenodd">
        <g id="新增ledger选项" transform="translate(-129.000000, -457.000000)" fill="#FFFFFF" fill-rule="nonzero">
            <g id="编组" transform="translate(129.000000, 457.000000)">
                <path d="M14.528,12.5697561 C14.528,12.7724228 14.4933333,12.9617561 14.424,13.1377561 C14.3546667,13.3137561 14.256,13.4684228 14.128,13.6017561 C14,13.7350894 13.8506667,13.8390894 13.68,13.9137561 C13.5093333,13.9884228 13.3226667,14.0257561 13.12,14.0257561 L1.504,14.0257561 C1.30133333,14.0257561 1.10933333,13.9884228 0.928,13.9137561 C0.746666667,13.8390894 0.586666667,13.7350894 0.448,13.6017561 C0.309333333,13.4684228 0.2,13.3137561 0.12,13.1377561 C0.04,12.9617561 3.33066907e-16,12.7724228 3.33066907e-16,12.5697561 L3.33066907e-16,4.5857561 C3.33066907e-16,4.18042276 0.141333333,3.83642276 0.424,3.5537561 C0.706666667,3.27108943 1.05066667,3.1297561 1.456,3.1297561 L13.072,3.1297561 C13.4773333,3.1297561 13.8213333,3.27108943 14.104,3.5537561 C14.3866667,3.83642276 14.528,4.18042276 14.528,4.5857561 L14.528,6.7617561 L10.896,6.7617561 C10.4906667,6.7617561 10.1466667,6.90042276 9.864,7.1777561 C9.58133333,7.45508943 9.44,7.79642276 9.44,8.2017561 C9.45066667,8.47908943 9.50933333,8.72442276 9.616,8.9377561 C9.70133333,9.11908943 9.84266667,9.28442276 10.04,9.4337561 C10.2373333,9.58308943 10.5226667,9.6577561 10.896,9.6577561 L14.528,9.6577561 L14.528,12.5697561 L14.528,12.5697561 Z M12.352,2.3937561 L5.088,2.3937561 C5.664,2.09508943 6.208,1.80708943 6.72,1.5297561 C7.168,1.29508943 7.61066667,1.06042276 8.048,0.825756098 C8.48533333,0.591089431 8.82666667,0.409756098 9.072,0.281756098 C9.44533333,0.0790894309 9.77866667,-0.0142439024 10.072,0.00175609756 C10.3653333,0.0177560976 10.6133333,0.0684227642 10.816,0.153756098 C11.0506667,0.271089431 11.2533333,0.425756098 11.424,0.617756098 L12.352,2.3937561 Z M10.176,8.2017561 C10.176,7.99908943 10.2453333,7.82842276 10.384,7.6897561 C10.5226667,7.55108943 10.6933333,7.4817561 10.896,7.4817561 C11.0986667,7.4817561 11.2693333,7.55108943 11.408,7.6897561 C11.5466667,7.82842276 11.616,7.99908943 11.616,8.2017561 C11.616,8.40442276 11.5466667,8.5777561 11.408,8.7217561 C11.2693333,8.8657561 11.0986667,8.9377561 10.896,8.9377561 C10.6933333,8.9377561 10.5226667,8.8657561 10.384,8.7217561 C10.2453333,8.5777561 10.176,8.40442276 10.176,8.2017561 Z" id="形状"></path>
            </g>
        </g>
    </g>
</svg>