<?xml version="1.0" encoding="UTF-8"?>
<svg width="14px" height="12px" viewBox="0 0 14 12" version="1.1" xmlns="http://www.w3.org/2000/svg" xmlns:xlink="http://www.w3.org/1999/xlink">
    <title>编组</title>
    <g id="2023.8.1-改动" stroke="none" stroke-width="1" fill="none" fill-rule="evenodd">
        <g id="新增提示语" transform="translate(-29.000000, -651.000000)" fill="#3548A7" fill-rule="nonzero">
            <g id="编组" transform="translate(29.000000, 651.000000)">
                <path d="M13.2817322,10.40599 L13.2817322,10.4041 L7.54229218,0.46312 L7.54131218,0.46312 C7.46949218,0.19852 7.14140218,0 6.74737218,0 C6.35047218,0 6.02350218,0.20328 5.95448218,0.47075 L0.0798721761,10.64469 L0.0847021761,10.65141 C-0.0495578239,10.78469 -0.0236578239,11.10109 0.158482176,11.39642 C0.341672176,11.69756 0.617752176,11.86535 0.796112176,11.79626 L0.802832176,11.80676 L12.6940122,11.80676 L12.7007322,11.7915 C12.8992522,11.82216 13.1436922,11.64758 13.2961522,11.33692 C13.4744422,10.97936 13.4629622,10.57665 13.2817322,10.40599 L13.2817322,10.40599 Z M5.91521218,3.58883 C5.91521218,3.14874 6.27284218,2.79209 6.71195218,2.79209 C7.15302218,2.79209 7.50876218,3.14874 7.50876218,3.58883 L7.50876218,7.69545 C7.50876218,8.13449 7.15302218,8.49219 6.71195218,8.49219 C6.27284218,8.49219 5.91521218,8.13456 5.91521218,7.69545 L5.91521218,3.58883 L5.91521218,3.58883 Z M6.71202218,10.7569 C6.23357218,10.7569 5.84528218,10.36854 5.84528218,9.88918 C5.84528218,9.41066 6.23357218,9.02426 6.71202218,9.02426 C7.19047218,9.02426 7.57869218,9.41073 7.57869218,9.88918 C7.57869218,10.36756 7.19047218,10.7569 6.71202218,10.7569 L6.71202218,10.7569 Z" id="形状"></path>
            </g>
        </g>
    </g>
</svg>