<?xml version="1.0" encoding="UTF-8"?>
<svg width="14px" height="14px" viewBox="0 0 14 14" version="1.1" xmlns="http://www.w3.org/2000/svg" xmlns:xlink="http://www.w3.org/1999/xlink">
    <title>打勾</title>
    <g id="" stroke="none" stroke-width="1" fill="none" fill-rule="evenodd">
        <g id="创建新钱包" transform="translate(-22.000000, -411.000000)" fill="#000000" fill-rule="nonzero">
            <g id="打勾" transform="translate(22.000000, 411.000000)">
                <rect id="矩形" opacity="0" x="0" y="0" width="14" height="14"></rect>
                <path d="M12.9999844,0 L1.00001563,0 C0.447722246,0 0,0.447722246 0,1.00001562 L0,12.9999844 C0,13.5522778 0.447722246,14 1.00001563,14 L12.9999844,14 C13.5522778,14 14,13.5522778 14,12.9999844 L14,1.00001563 C14,0.447722246 13.5522778,0 12.9999844,0 Z M11.8314902,4.60419531 L6.32846484,10.2633398 C6.25928476,10.3350122 6.17387422,10.3889858 6.07944531,10.4207031 C5.84682451,10.5199833 5.57743353,10.4712744 5.39430664,10.2968223 L2.18572266,7.24292188 C1.93625424,7.0005656 1.92841371,6.60254065 2.16814416,6.35054785 C2.40787461,6.09855506 2.80579562,6.08654668 3.06028516,6.323625 L5.82806055,8.95764844 L10.9222012,3.719625 C11.1023464,3.53440034 11.3768377,3.47695665 11.6161383,3.57440252 C11.8554389,3.67184839 12.0117163,3.90470595 12.0112219,4.16308594 C12.0115276,4.32798368 11.9470345,4.48640054 11.8316406,4.60419531 L11.8314902,4.60419531 Z" id="形状"></path>
            </g>
        </g>
    </g>
</svg>