<?xml version="1.0" encoding="UTF-8"?>
<svg width="20px" height="20px" viewBox="0 0 20 20" version="1.1" xmlns="http://www.w3.org/2000/svg" xmlns:xlink="http://www.w3.org/1999/xlink">
    <title></title>
    <g id="" stroke="none" stroke-width="1" fill="none" fill-rule="evenodd">
        <g id="" transform="translate(-20.000000, -300.000000)" fill="#000000" fill-rule="nonzero">
            <g id="" transform="translate(20.000000, 300.000000)">
                <rect id="" opacity="0" x="0" y="0" width="20" height="20"></rect>
                <path d="M7.5,5 L7.5,2.5 L12.5,2.5 L12.5,5 L16.25,5 L16.25,8.75 L3.75,8.75 L3.75,5 L12.5,5 L7.5,5 Z M13.75,17.5 L13.75,13.75 L12.5,13.75 L12.5,17.5 L10.625,17.5 L10.625,13.75 L9.375,13.75 L9.375,17.5 L7.5,17.5 L7.5,13.75 L6.25,13.75 L6.25,17.5 L3.4075,17.5 L3.75,16.20625 L3.75,10 L16.25,10 L16.25,16.28 L16.6125,17.5 L13.75,17.5 Z" id=""></path>
            </g>
        </g>
    </g>
</svg>