<?xml version="1.0" encoding="UTF-8"?>
<svg width="12px" height="12px" viewBox="0 0 12 12" version="1.1" xmlns="http://www.w3.org/2000/svg" xmlns:xlink="http://www.w3.org/1999/xlink">
    <title>编组</title>
    <g id="2022.12.1改动" stroke="none" stroke-width="1" fill="none" fill-rule="evenodd">
        <g id="交易部署2" transform="translate(-20.000000, -371.000000)" fill="#3548A7" fill-rule="nonzero">
            <g id="编组" transform="translate(20.000000, 371.000000)">
                <path d="M6,0 C2.66666667,0 0,2.70833333 0,6 C0,9.29166667 2.70833333,12 6,12 C9.29166667,12 12,9.29166667 12,6 C12,2.70833333 9.33333333,0 6,0 Z M6,11.4166667 C3.04166667,11.4166667 0.625,9 0.625,6.04166667 C0.625,3.08333333 3.04166667,0.666666667 6,0.666666667 C8.95833333,0.666666667 11.375,3.08333333 11.375,6.04166667 C11.375,9 9,11.4166667 6,11.4166667 Z" id="形状"></path>
                <path d="M9.67592593,6.31818182 L5.64814815,6.31818182 L5.64814815,2.31818182 C5.64814815,2.13636364 5.50925926,2 5.32407407,2 C5.13888889,2 5,2.13636364 5,2.31818182 L5,6.68181818 C5,6.86363636 5.13888889,7 5.32407407,7 C5.32407407,7 5.37037037,7 5.37037037,7 L9.67592593,7 C9.86111111,7 10,6.86363636 10,6.68181818 C10,6.45454545 9.86111111,6.31818182 9.67592593,6.31818182 Z" id="路径"></path>
            </g>
        </g>
    </g>
</svg>