<?xml version="1.0" encoding="UTF-8"?>
<svg width="20px" height="20px" viewBox="0 0 20 20" version="1.1" xmlns="http://www.w3.org/2000/svg" xmlns:xlink="http://www.w3.org/1999/xlink">
    <title></title>
    <g id="" stroke="none" stroke-width="1" fill="none" fill-rule="evenodd">
        <g id="" transform="translate(-304.000000, -115.000000)">
            <rect fill="#FFFFFF" x="0" y="0" width="360" height="600"></rect>
            <rect id="" fill="#010000" opacity="0.496934048" x="0" y="0" width="360" height="600"></rect>
            <rect id="" fill="#FFFFFF" x="12" y="63" width="336" height="460" rx="4"></rect>
            <rect id="-4" fill="#F2F2F2" x="29" y="105" width="301" height="40" rx="8"></rect>
            <g id="" transform="translate(304.000000, 115.000000)" fill="#C1C1C1" fill-rule="nonzero">
                <rect id="" opacity="0" x="0" y="0" width="20" height="20"></rect>
                <path d="M14.4417983,6.29126604 C14.7919334,5.91312564 15.3592183,5.9017331 15.7223339,6.26554961 C16.0445759,6.58807639 16.092413,7.11713849 15.8339457,7.49993846 L15.7475365,7.60923331 L9.24884873,14.708255 C8.92482079,15.0586699 8.40882357,15.0982372 8.04152095,14.8008342 L7.93831003,14.7031117 L4.24791945,10.619342 C4.08327237,10.4378865 3.99398808,10.1928887 4.00031472,9.93990966 C4.00664135,9.68693065 4.10804281,9.44740691 4.28152301,9.27565826 C4.60916346,8.94992205 5.1079992,8.92387754 5.46364812,9.21393882 L5.56325866,9.30908962 L8.60198027,12.6689418 L14.4405982,6.29126604 L14.4417983,6.29126604 Z" id=""></path>
            </g>
        </g>
    </g>
</svg>