<?xml version="1.0" encoding="UTF-8"?>
<svg width="16px" height="16px" viewBox="0 0 16 16" version="1.1" xmlns="http://www.w3.org/2000/svg" xmlns:xlink="http://www.w3.org/1999/xlink">
    <title></title>
    <g id="" stroke="none" stroke-width="1" fill="none" fill-rule="evenodd">
        <g id="" transform="translate(-270.000000, -102.000000)" fill-rule="nonzero">
            <g id="" transform="translate(270.000000, 102.000000)">
                <rect id="" fill="#000000" opacity="0" x="0" y="0" width="16" height="16"></rect>
                <path d="M11.7705,10.9195 L11.7705,5.9949 C11.7705,5.0254 10.9844,4.2398 10.016,4.2398 L6.1766,4.2398 L5.067,4.2398 L4.2274,4.2398 L3.7659,4.2398 C2.7964,4.2398 2.0114,5.0253 2.0114,5.9949 L2.0114,12.2457 C2.0114,13.2141 2.7964,14 3.7659,14 L10.0161,14 C10.9856,14 11.7706,13.2141 11.7706,12.2457 L11.7706,11.7603 L11.7843,11.7603 L11.7843,10.916 C11.7795,10.916 11.7762,10.9184 11.7705,10.9195 Z M10.3219,10.652 L10.3219,11.3176 C10.3219,11.3311 10.3182,11.3456 10.3182,11.3593 C10.2959,12.0211 9.7547,12.5515 9.088,12.5515 L4.6928,12.5515 C4.0116,12.5515 3.4599,11.9989 3.4599,11.3176 L3.4599,6.9217 C3.4599,6.2618 3.9796,5.7265 4.632,5.6936 C4.6522,5.6926 4.6726,5.6878 4.6928,5.6878 L5.3401,5.6878 L9.088,5.6878 C9.7702,5.6878 10.3219,6.241 10.3219,6.9217 L10.3219,10.652 Z M13.9863,8.6797 L13.9863,3.7551 C13.9863,2.7856 13.2002,2 12.2318,2 L8.3924,2 L7.2828,2 L6.4432,2 L5.9817,2 C5.0122,2 4.2272,2.7855 4.2272,3.7551 L4.2272,3.825 L6.0253,3.825 C6.2361,3.6092 6.5257,3.47 6.8479,3.4538 C6.868,3.4528 6.8884,3.448 6.9086,3.448 L7.5559,3.448 L11.3038,3.448 C11.986,3.448 12.5377,4.0012 12.5377,4.6819 L12.5377,8.4121 L12.5377,9.0777 C12.5377,9.0912 12.534,9.1057 12.534,9.1194 C12.5203,9.5243 12.312,9.8793 12,10.0944 L12,11.7601 L12.2318,11.7601 C13.2013,11.7601 13.9863,10.9742 13.9863,10.0058 L13.9863,9.5204 L14,9.5204 L14,8.6761 C13.9953,8.6762 13.992,8.6785 13.9863,8.6797 Z" id="" fill="#C1C1C1"></path>
            </g>
        </g>
    </g>
</svg>