<?xml version="1.0" encoding="UTF-8"?>
<svg width="20px" height="20px" viewBox="0 0 20 20" version="1.1" xmlns="http://www.w3.org/2000/svg" xmlns:xlink="http://www.w3.org/1999/xlink">
    <title></title>
    <g id="" stroke="none" stroke-width="1" fill="none" fill-rule="evenodd">
        <g id="" transform="translate(-20.000000, -190.000000)" fill="#000000" fill-rule="nonzero">
            <g id="" transform="translate(20.000000, 190.000000)">
                <rect id="" opacity="0" x="0" y="0" width="20" height="20"></rect>
                <path d="M6.01676174,5.81818182 C6.01676174,5.81818182 7.56056483,7.0987013 9.54545455,7.0987013 C11.5303443,7.0987013 13.118256,5.81818182 13.118256,5.81818182 C13.118256,5.81818182 14.8384937,4.27272728 13.9563205,3.61038961 C13.0741473,2.94805193 11.7508875,3.83116883 11.7508875,3.83116883 C11.7508876,3.83116883 10.7363884,2.72727273 9.54545455,2.72727273 C8.35452073,2.72727273 7.38413021,3.83116883 7.38413021,3.83116883 C7.38413021,3.83116883 6.06087041,2.94805195 5.17869721,3.61038961 C4.29652402,4.27272726 6.01676176,5.81818182 6.01676174,5.81818182 L6.01676174,5.81818182 Z M16.8674921,14.3402597 C16.8674921,14.3402597 17.4409047,12.6623377 16.1176449,9.92467534 C14.7061678,7.05454547 12.8094954,7.01038961 12.8094954,7.01038961 C12.8094954,7.01038961 11.3980183,7.8935065 9.54545455,7.8935065 C7.69289084,7.8935065 6.32552236,7.01038961 6.32552236,7.01038961 C6.32552236,7.01038961 4.38474133,7.01038961 2.97326421,9.96883117 C1.69411308,12.6181818 2.223417,14.3844156 2.223417,14.3844156 C2.223417,14.3844156 -0.775971876,18.1818182 9.54545455,18.1818182 C19.866881,18.1818182 16.8674921,14.3402597 16.8674921,14.3402597 L16.8674921,14.3402597 Z M9.50134588,16.5922078 C7.42823886,16.5922078 5.75210979,14.9142857 5.75210979,12.8831169 C5.75210979,10.8519481 7.42823886,9.17402598 9.50134588,9.17402598 C11.5744529,9.17402598 13.250582,10.8519481 13.250582,12.8831169 C13.250582,14.9142857 11.5744529,16.5922078 9.50134588,16.5922078 Z M7.16358691,12.7064935 L9.58956319,15.1350649 L12.0155395,12.7064935 L9.58956319,10.2779221 L7.16358691,12.7064935 Z" id=""></path>
            </g>
        </g>
    </g>
</svg>