<?xml version="1.0" encoding="UTF-8"?>
<svg width="30px" height="30px" viewBox="0 0 30 30" version="1.1" xmlns="http://www.w3.org/2000/svg" xmlns:xlink="http://www.w3.org/1999/xlink">
    <title>编组 8</title>
    <g id="" stroke="none" stroke-width="1" fill="none" fill-rule="evenodd">
        <g id="代币详细备份" transform="translate(-21.000000, -459.000000)">
            <g id="编组-8" transform="translate(21.000000, 459.000000)">
                <circle id="椭圆形备份-2" stroke="#000000" stroke-width="1.5" cx="15" cy="15" r="14.25"></circle>
                <g id="叉" transform="translate(8.000000, 8.000000)" fill="#000000" fill-rule="nonzero">
                    <rect id="矩形" opacity="0" x="0" y="0" width="13" height="13"></rect>
                    <path d="M11.7330715,11.7334952 C11.3779761,12.0888349 10.7996317,12.0888349 10.4437274,11.7334952 L2.27653365,3.56068202 C1.92143827,3.20453288 1.92062939,2.62659997 2.27653365,2.27045084 C2.63082016,1.9143017 3.20916457,1.9143017 3.56668657,2.27045084 L11.7330715,10.4424546 C12.0881668,10.8002226 12.0897846,11.3773461 11.7330715,11.7334952 L11.7330715,11.7334952 Z M11.723365,3.55663487 L3.55698009,11.7286386 C3.20026696,12.0855972 2.62273142,12.0855972 2.26682717,11.7286386 C1.91092291,11.3732989 1.91092291,10.7961755 2.26763604,10.4384075 L10.4340209,2.26721312 C10.7907341,1.91106398 11.3690785,1.91106398 11.723365,2.26640369 C12.0800781,2.62255282 12.0784604,3.20048573 11.723365,3.55663487 L11.723365,3.55663487 Z" id="形状"></path>
                </g>
            </g>
        </g>
    </g>
</svg>