<?xml version="1.0" encoding="UTF-8"?>
<svg width="15px" height="11px" viewBox="0 0 15 11" version="1.1" xmlns="http://www.w3.org/2000/svg" xmlns:xlink="http://www.w3.org/1999/xlink">
    <title>guanbi</title>
    <g id="页面-1" stroke="none" stroke-width="1" fill="none" fill-rule="evenodd">
        <g id="展示余额" transform="translate(-278.000000, -206.000000)" fill="#C1C1C1" fill-rule="nonzero">
            <g id="guanbi" transform="translate(278.000000, 206.000000)">
                <path d="M4.40046982,1.06875 C5.32683701,0.736523437 6.30593857,0.56953125 7.29207139,0.5765625 C10.2012511,0.5765625 12.5778136,1.88085937 14.4217589,4.4859375 C14.6414854,4.79707031 14.6432433,5.20664062 14.4252745,5.51777344 C13.6272276,6.66210937 12.7201964,7.55332031 11.7059386,8.19492187 L12.9241026,9.38496094 L12.2631651,10.0300781 L2.64441514,0.643359375 L3.30535264,4.4408921e-16 L4.40046982,1.06875 L4.40046982,1.06875 Z M9.74597764,6.28417969 C9.96921982,5.90449219 10.0940245,5.46679687 10.0940245,5.00097656 C10.0940245,3.53496094 8.83894639,2.34492187 7.29031357,2.34492187 C6.82800889,2.34492187 6.3938292,2.45039062 6.00886826,2.63847656 L7.10046982,3.70546875 C7.16375107,3.69667969 7.22703232,3.69316406 7.29207139,3.69316406 C8.0672667,3.69316406 8.69304795,4.28730469 8.69304795,5.0203125 C8.69304795,5.09589844 8.6860167,5.16972656 8.67371201,5.24179687 L9.74597764,6.28417969 L9.74597764,6.28417969 Z M2.6813292,1.95117187 L4.72214951,3.94101562 C4.57273545,4.26621094 4.49011826,4.62480469 4.49011826,5.00097656 C4.49011826,6.46699219 5.74519639,7.65527344 7.2938292,7.65527344 C7.66121201,7.65527344 8.01277451,7.58847656 8.33621201,7.46542969 L9.93582139,9.02636719 C9.08328232,9.29707031 8.19031357,9.43066406 7.2938292,9.42539062 C4.36004014,9.42539062 1.98347764,8.12285156 0.162383886,5.51777344 C-0.0555848639,5.20664062 -0.0538270514,4.7953125 0.165899511,4.48417969 C0.912969824,3.42597656 1.7532042,2.58046875 2.6813292,1.95117187 L2.6813292,1.95117187 Z M7.18308701,6.34570312 C6.48347764,6.29121094 5.9297667,5.75332031 5.89461045,5.08710937 L7.18308701,6.34570312 Z" id="形状"></path>
            </g>
        </g>
    </g>
</svg>