<?xml version="1.0" encoding="UTF-8"?>
<svg width="20px" height="20px" viewBox="0 0 20 20" version="1.1" xmlns="http://www.w3.org/2000/svg" xmlns:xlink="http://www.w3.org/1999/xlink">
    <title>@2x</title>
    <g id="" stroke="none" stroke-width="1" fill="none" fill-rule="evenodd">
        <g id="" transform="translate(-20.000000, -135.000000)" fill="#000000" fill-rule="nonzero">
            <g id="@2x" transform="translate(20.000000, 135.000000)">
                <rect id="" opacity="0" x="0" y="0" width="20" height="20"></rect>
                <path d="M10,2 C14.3683907,2.00160188 17.9278247,5.50712594 17.9960895,9.87498347 C18.0643544,14.242841 14.6162071,17.8578859 10.25,17.996 L10,18 C5.581722,18 2,14.418278 2,10 C2,5.581722 5.581722,2 10,2 L10,2 Z M10,3.5 C9.39,3.5 8.8,3.584 8.241,3.74 C7.749,4.636 7.361,5.53 7.079,6.424 C6.41425467,6.22981029 5.76671313,5.98096168 5.143,5.68 C4.91711191,5.93348422 4.71147973,6.20431684 4.528,6.49 L4.268,6.36 C5.113,6.8 5.962,7.142 6.812,7.386 C6.681372,7.94276217 6.59113714,8.50823397 6.542,9.078 L6.513,9.5 L3.52,9.5 C3.49467265,9.83285223 3.49467265,10.1671478 3.52,10.5 L6.51,10.5 C6.538,11.21 6.634,11.917 6.796,12.622 C6.039,12.842 5.284,13.137 4.532,13.51 C4.715,13.799 4.922,14.07 5.148,14.324 L4.835,14.476 C5.54657067,14.1110692 6.29083777,13.8137641 7.058,13.588 C7.341,14.48 7.729,15.369 8.225,16.255 C8.96443534,16.463791 9.73494399,16.5403003 10.5010045,16.481 L10.5010045,13.165 C11.006,13.187 11.513,13.246 12.021,13.345 C11.745,14.205 11.361,15.065 10.866,15.925 L10.61,16.355 L10.531,16.479 C10.981,16.442 11.418,16.36 11.837,16.237 C12.331,15.353 12.717,14.465 12.997,13.574 C13.516,13.721 14.037,13.906 14.56,14.13 L14.894,14.28 C15.118,14.023 15.322,13.75 15.504,13.461 L15.825,13.617 C15.0045051,13.1993341 14.1454972,12.862094 13.26,12.61 C13.387,12.05 13.473,11.487 13.517,10.923 L13.542,10.501 L16.482,10.499 C16.5073235,10.1661476 16.5073235,9.83185237 16.482,9.499 L13.538,9.5 C13.5034828,8.79337438 13.4040642,8.09141939 13.241,7.403 C13.9560765,7.20070718 14.6539411,6.94189204 15.328,6.629 L15.508,6.544 C15.3263382,6.25582335 15.122381,5.98232008 14.898,5.726 L15.296,5.536 C14.52,5.922 13.748,6.222 12.979,6.437 C12.6805466,5.50913516 12.2923787,4.61256434 11.82,3.76 C11.3975339,3.63690293 10.9636279,3.55715804 10.525,3.522 L10.632,3.697 C11.227,4.693 11.682,5.683 12.0010045,6.668 C11.624,6.739 11.249,6.79 10.874,6.82 L10.499,6.843 L10.499,3.52 C10.3329791,3.50703096 10.1665263,3.50035951 10,3.5 Z M9.5,13.168 L9.5,16.446 L9.443,16.356 C8.913,15.496 8.492,14.638 8.179,13.78 L8.032,13.351 L8.181,13.323 C8.621,13.243 9.061,13.192 9.501,13.168 L9.5,13.168 Z M9.5,10.5 L9.5,12.167 C8.922,12.195 8.344,12.267 7.766,12.385 C7.65229557,11.8885665 7.57442819,11.3846008 7.533,10.877 L7.51,10.5 L9.5,10.5 Z M10.5,10.5 L12.54,10.5 C12.5120043,11.1317668 12.4266533,11.7596824 12.285,12.376 C11.838,12.288 11.392,12.226 10.946,12.19 L10.5,12.164 L10.5,10.5 Z M7.784,7.625 C8.212,7.712 8.641,7.773 9.071,7.81 L9.501,7.84 L9.5,9.5 L7.515,9.5 C7.537,9.079 7.585,8.656 7.659,8.233 L7.742,7.809 L7.784,7.625 L7.784,7.625 Z M12.269,7.635 C12.385,8.134 12.465,8.632 12.509,9.128 L12.535,9.5 L10.5,9.5 L10.5,7.843 C10.82,7.83 11.14,7.803 11.46,7.763 L11.94,7.693 L12.27,7.634 L12.269,7.635 Z M9.5,3.561 L9.5,6.837 C9.01365966,6.81159365 8.52975878,6.75144023 8.052,6.657 C8.37,5.675 8.825,4.687 9.419,3.694 L9.5,3.561 Z" id=""></path>
            </g>
        </g>
    </g>
</svg>