<?xml version="1.0" encoding="UTF-8"?>
<svg width="22px" height="22px" viewBox="0 0 22 22" version="1.1" xmlns="http://www.w3.org/2000/svg" xmlns:xlink="http://www.w3.org/1999/xlink">
    <title></title>
    <g id="" stroke="none" stroke-width="1" fill="none" fill-rule="evenodd">
        <g id="" transform="translate(-166.000000, -484.000000)" fill="#FFFFFF" fill-rule="nonzero">
            <g id="" transform="translate(166.000000, 484.000000)">
                <rect id="" opacity="0" x="0" y="0" width="22" height="22"></rect>
                <path d="M6.41666665,11 C6.41666665,10.7568849 6.32008957,10.5237271 6.14818122,10.3518188 C5.97627287,10.1799104 5.74311512,10.0833333 5.5,10.0833333 L1.83333333,10.0833333 C1.3270723,10.0833333 0.916666652,10.493739 0.916666652,11 C0.916666652,11.506261 1.3270723,11.9166667 1.83333333,11.9166667 L5.5,11.9166667 C6.00626102,11.9166667 6.41666665,11.506261 6.41666665,11 L6.41666665,11 Z M20.1666667,10.0833333 L16.5,10.0833333 C15.993739,10.0833333 15.5833333,10.493739 15.5833333,11 C15.5833333,11.506261 15.993739,11.9166667 16.5,11.9166667 L20.1666667,11.9166667 C20.6729277,11.9166667 21.0833333,11.506261 21.0833333,11 C21.0833333,10.493739 20.6729277,10.0833333 20.1666667,10.0833333 L20.1666667,10.0833333 Z M11,0.916666674 C10.493739,0.916666674 10.0833333,1.32707231 10.0833333,1.83333333 L10.0833333,5.5 C10.0833333,6.00626102 10.493739,6.41666667 11,6.41666667 C11.506261,6.41666667 11.9166667,6.00626102 11.9166667,5.5 L11.9166667,1.83333333 C11.9166667,1.32707231 11.506261,0.916666674 11,0.916666674 L11,0.916666674 Z M11,15.5833333 C10.493739,15.5833333 10.0833333,15.993739 10.0833333,16.5 L10.0833333,20.1666667 C10.0833333,20.6729277 10.493739,21.0833333 11,21.0833333 C11.506261,21.0833333 11.9166667,20.6729277 11.9166667,20.1666667 L11.9166667,16.5 C11.9166667,15.993739 11.506261,15.5833333 11,15.5833333 L11,15.5833333 Z" id=""></path>
                <path d="M6.4625,14.2413333 L3.87016667,16.8336667 C3.63187272,17.0638182 3.53630438,17.4046382 3.62019348,17.7251321 C3.70408258,18.045626 3.95437399,18.2959174 4.2748679,18.3798065 C4.59536181,18.4636956 4.93618182,18.3681273 5.16633333,18.1298333 L7.75866667,15.5375 C7.99696026,15.3073484 8.09252831,14.9665286 8.00863917,14.6460349 C7.92475002,14.3255412 7.67445878,14.07525 7.3539651,13.9913608 C7.03347142,13.9074717 6.69265159,14.0030397 6.4625,14.2413333 L6.4625,14.2413333 Z" id="" opacity="0.503747275"></path>
                <path d="M15.5375,7.75866667 L18.1298333,5.16633333 C18.3681273,4.93618182 18.4636956,4.59536181 18.3798065,4.2748679 C18.2959174,3.95437399 18.045626,3.70408258 17.7251321,3.62019348 C17.4046382,3.53630438 17.0638182,3.63187272 16.8336667,3.87016667 L14.2413333,6.4625 C14.0030397,6.69265159 13.9074717,7.03347142 13.9913608,7.3539651 C14.07525,7.67445878 14.3255412,7.92475002 14.6460349,8.00863917 C14.9665286,8.09252831 15.3073484,7.99696026 15.5375,7.75866667 L15.5375,7.75866667 Z" id="" opacity="0.503747275"></path>
                <path d="M5.16633333,3.87016667 C4.93618182,3.63187272 4.59536181,3.53630438 4.2748679,3.62019348 C3.95437399,3.70408258 3.70408258,3.95437399 3.62019348,4.2748679 C3.53630438,4.59536181 3.63187272,4.93618182 3.87016667,5.16633333 L6.4625,7.75866667 C6.69265159,7.99696026 7.03347142,8.09252831 7.3539651,8.00863917 C7.67445878,7.92475002 7.92475002,7.67445878 8.00863917,7.3539651 C8.09252831,7.03347142 7.99696026,6.69265159 7.75866667,6.4625 L5.16633333,3.87016667 Z" id="" opacity="0.503747275"></path>
                <path d="M15.5375,14.2413333 C15.3073484,14.0030397 14.9665286,13.9074717 14.6460349,13.9913608 C14.3255412,14.07525 14.07525,14.3255412 13.9913608,14.6460349 C13.9074717,14.9665286 14.0030397,15.3073484 14.2413333,15.5375 L16.8336667,18.1298333 C17.0638182,18.3681273 17.4046382,18.4636956 17.7251321,18.3798065 C18.045626,18.2959174 18.2959174,18.045626 18.3798065,17.7251321 C18.4636956,17.4046382 18.3681273,17.0638182 18.1298333,16.8336667 L15.5375,14.2413333 Z" id="" opacity="0.503747275"></path>
            </g>
        </g>
    </g>
</svg>