<?xml version="1.0" encoding="UTF-8"?>
<svg width="42px" height="22px" viewBox="0 0 42 22" version="1.1" xmlns="http://www.w3.org/2000/svg" xmlns:xlink="http://www.w3.org/1999/xlink">
    <title>on</title>
    <g id="2023.1.12改动" stroke="none" stroke-width="1" fill="none" fill-rule="evenodd">
        <g id="管理自定义代币备份" transform="translate(-278.000000, -291.000000)">
            <g id="on" transform="translate(278.000000, 291.000000)">
                <path d="M0,11 L0,11 C0,4.92486775 4.92076837,0 11.0075657,0 L30.9924343,0 C37.071745,0 42,4.923532 42,11 L42,11 C42,17.0751322 37.0792316,22 30.9924343,22 L11.0075657,22 C4.92825504,22 0,17.0791222 0,11 L0,11 Z" id="Rectangle-77-Copy-7" fill="#3548A7"></path>
                <path d="M31,20 C35.9705627,20 40,15.9705627 40,11 C40,6.02943725 35.9705627,2 31,2 C26.0294373,2 22,6.02943725 22,11 C22,15.9705627 26.0294373,20 31,20 Z" id="Oval-1-Copy-13" fill="#FFFFFF"></path>
                <g id="Icon/Check" transform="translate(7.000000, 5.000000)">
                    <rect id="Rectangle" x="0" y="0" width="12" height="12"></rect>
                    <path d="M10.2249174,2.67107685 C10.4173054,2.8443037 10.4328385,3.14069304 10.2596116,3.33308096 L4.66918748,9.54187596 C4.612634,9.60468496 4.5429535,9.64864423 4.4680504,9.67333952 C4.46089966,9.67462623 4.45420397,9.67694476 4.44747108,9.67910626 C4.43803123,9.68224794 4.42830431,9.68463807 4.41852054,9.68671412 C4.25561596,9.72835781 4.0758697,9.68005227 3.95554594,9.54641919 L3.95554594,9.54641919 L1.74733245,7.09394965 C1.57410559,6.90156174 1.5896387,6.6051724 1.78202661,6.43194554 C1.97441453,6.25871869 2.27080386,6.27425179 2.44403072,6.46663971 L2.44403072,6.46663971 L4.30992759,8.53867199 L9.56291333,2.70577101 C9.73614019,2.5133831 10.0325295,2.49784999 10.2249174,2.67107685 Z" id="Combined-Shape" fill="#FFFFFF"></path>
                </g>
            </g>
        </g>
    </g>
</svg>