<?xml version="1.0" encoding="UTF-8"?>
<svg width="20px" height="20px" viewBox="0 0 20 20" version="1.1" xmlns="http://www.w3.org/2000/svg" xmlns:xlink="http://www.w3.org/1999/xlink">
    <title> 3</title>
    <g id="" stroke="none" stroke-width="1" fill="none" fill-rule="evenodd">
        <g id="" transform="translate(-20.000000, -190.000000)">
            <rect fill="#FFFFFF" x="0" y="0" width="360" height="600"></rect>
            <g id="-3" transform="translate(20.000000, 190.000000)" fill="#000000" fill-rule="nonzero">
                <rect id="" opacity="0" x="0" y="0" width="20" height="20"></rect>
                <path d="M16.9130435,3.34956522 C16.9130435,3.34956522 16.9130435,11.5033043 16.9130435,11.5033043 C16.9130435,11.9923478 16.7968696,12.4786087 16.5652174,12.962087 C16.3328696,13.4469565 16.0295652,13.9151304 15.653913,14.370087 C15.2782609,14.8243478 14.8490435,15.2549565 14.3669565,15.6605217 C13.8841739,16.0667826 13.3951304,16.4285217 12.8991304,16.7457391 C12.4024348,17.0636522 11.9203478,17.328 11.4521739,17.538087 C10.984,17.7481739 10.5735652,17.8921739 10.2208696,17.9707826 C10.2208696,17.9707826 10.053913,18 10.053913,18 C10.053913,18 9.90086956,17.9707826 9.90086956,17.9707826 C9.53913044,17.8921739 9.11965217,17.7481739 8.64173912,17.538087 C8.16382608,17.328 7.66782608,17.0636522 7.15304347,16.7457391 C6.63826086,16.4285217 6.13321739,16.0667826 5.63652173,15.6605217 C5.14052173,15.2549565 4.6973913,14.8243478 4.30782608,14.370087 C3.91826086,13.9151304 3.60313044,13.4469565 3.36243478,12.962087 C3.12034783,12.4786087 3,11.9923478 3,11.5033043 C3,11.5033043 3,3.34956522 3,3.34956522 C3,3.34956522 3.57043478,3.26121739 3.57043478,3.26121739 C3.57043478,3.26121739 9.97043478,2 9.97043478,2 C9.97043478,2 16.4956522,3.26121739 16.4956522,3.26121739 C16.4956522,3.26121739 16.9130435,3.34956522 16.9130435,3.34956522 C16.9130435,3.34956522 16.9130435,3.34956522 16.9130435,3.34956522 Z M9.97252173,3.18052173 C9.97252173,3.18052173 9.89530434,3.16452173 9.89530434,3.16452173 C9.89530434,3.16452173 4.40243478,4.14886956 4.40243478,4.14886956 C4.40243478,4.14886956 4.40243478,9.29321739 4.40243478,9.29321739 C4.40243478,9.29321739 9.97252173,9.29321739 9.97252173,9.29321739 C9.97252173,9.29321739 9.97252173,3.18052173 9.97252173,3.18052173 C9.97252173,3.18052173 9.97252173,3.18052173 9.97252173,3.18052173 Z M15.5106087,9.29321739 C15.5106087,9.29321739 9.97252173,9.29321739 9.97252173,9.29321739 C9.97252173,9.29321739 9.97252173,16.6156522 9.97252173,16.6156522 C10.3286956,16.5293913 10.7161739,16.397913 11.1349565,16.2205217 C11.5530435,16.0431304 11.9662609,15.8337391 12.373913,15.5916522 C12.7822609,15.3495652 13.1746087,15.0810435 13.5523478,14.7853913 C13.930087,14.4897391 14.2633043,14.1718261 14.5547826,13.8330435 C14.8455652,13.4949565 15.0772174,13.1429565 15.2504348,12.7770435 C15.4243478,12.4118261 15.5106087,12.0403478 15.5106087,11.664 C15.5106087,11.664 15.5106087,9.29321739 15.5106087,9.29321739 C15.5106087,9.29321739 15.5106087,9.29321739 15.5106087,9.29321739 Z" id=""></path>
            </g>
        </g>
    </g>
</svg>