<?xml version="1.0" encoding="UTF-8"?>
<svg width="16px" height="16px" viewBox="0 0 16 16" version="1.1" xmlns="http://www.w3.org/2000/svg" xmlns:xlink="http://www.w3.org/1999/xlink">
    <title>question-circle-filled</title>
    <g id="" stroke="none" stroke-width="1" fill="none" fill-rule="evenodd">
        <g id="-2" transform="translate(-324.000000, -283.000000)" fill-rule="nonzero">
            <g id="question-circle-filled" transform="translate(324.000000, 283.000000)">
                <rect id="" fill="#000000" opacity="0" x="0" y="0" width="16" height="16"></rect>
                <path d="M8,1 C4.134375,1 1,4.134375 1,8 C1,11.865625 4.134375,15 8,15 C11.865625,15 15,11.865625 15,8 C15,4.134375 11.865625,1 8,1 Z M8,12.0625 C7.6546875,12.0625 7.375,11.7828125 7.375,11.4375 C7.375,11.0921875 7.6546875,10.8125 8,10.8125 C8.3453125,10.8125 8.625,11.0921875 8.625,11.4375 C8.625,11.7828125 8.3453125,12.0625 8,12.0625 Z M8.9828125,8.6328125 C8.69375,8.74375 8.5,9.025 8.5,9.3328125 L8.5,9.6875 C8.5,9.75625 8.44375,9.8125 8.375,9.8125 L7.625,9.8125 C7.55625,9.8125 7.5,9.75625 7.5,9.6875 L7.5,9.3515625 C7.5,8.990625 7.6046875,8.634375 7.8109375,8.3375 C8.0125,8.046875 8.29375,7.825 8.625,7.6984375 C9.15625,7.49375 9.5,7.0484375 9.5,6.5625 C9.5,5.8734375 8.8265625,5.3125 8,5.3125 C7.1734375,5.3125 6.5,5.8734375 6.5,6.5625 L6.5,6.68125 C6.5,6.75 6.44375,6.80625 6.375,6.80625 L5.625,6.80625 C5.55625,6.80625 5.5,6.75 5.5,6.68125 L5.5,6.5625 C5.5,5.9484375 5.76875,5.375 6.25625,4.9484375 C6.725,4.5375 7.34375,4.3125 8,4.3125 C8.65625,4.3125 9.275,4.5390625 9.74375,4.9484375 C10.23125,5.375 10.5,5.9484375 10.5,6.5625 C10.5,7.465625 9.9046875,8.278125 8.9828125,8.6328125 Z" id="" fill="#333333"></path>
            </g>
        </g>
    </g>
</svg>