<?xml version="1.0" encoding="UTF-8"?>
<svg width="36px" height="36px" viewBox="0 0 36 36" version="1.1" xmlns="http://www.w3.org/2000/svg" xmlns:xlink="http://www.w3.org/1999/xlink">
    <title> 2</title>
    <g id="" stroke="none" stroke-width="1" fill="none" fill-rule="evenodd">
        <g id="" transform="translate(-134.000000, -256.000000)">
            <g id="-2" transform="translate(134.000000, 256.000000)">
                <circle id="" fill="#000000" cx="18" cy="18" r="18"></circle>
                <g id="" transform="translate(8.000000, 8.000000)">
                    <rect id="" x="0" y="0" width="20" height="20"></rect>
                    <g id="-3" transform="translate(3.000000, 2.000000)">
                        <path d="M5.7731982,9.88118524 C5.42263116,9.88066114 5.10679776,9.68175557 4.97255892,9.3769575 C4.83832007,9.07215943 4.91202018,8.72128558 5.15938908,8.48749047 L13.9219032,0.239292272 C14.2609006,-0.0797640995 14.810524,-0.0797640893 15.1495214,0.239292294 C15.4885188,0.558348678 15.4885188,1.07564128 15.1495214,1.39469768 L6.38700732,9.64176975 C6.22446785,9.79535656 6.00352103,9.88153621 5.7731982,9.88118524 Z" id="" fill="#FFFFFF" fill-rule="nonzero"></path>
                        <polygon id="" fill="#FFFFFF" fill-rule="nonzero" points="2.87170608 6.54920218 2.87170608 11.8537067 8.50774212 11.8537067 5.26041667 9.60550849 2.87170608 6.54920218"></polygon>
                        <path d="M8.50774212,12.6708238 L2.87170608,12.6708238 C2.39221968,12.6708238 2.00351914,12.304988 2.00351914,11.8537067 L2.00351914,6.54920218 C2.00366576,6.1961862 2.24466776,5.88317382 2.60105588,5.77312398 C2.957444,5.66307415 3.34862571,5.7808732 3.57094595,6.06519317 L5.88140484,9.02127425 L9.0231982,11.1955986 C9.32532362,11.4048657 9.45047512,11.7730949 9.33348432,12.1085432 C9.21649351,12.4439916 8.88382287,12.6708238 8.50869932,12.6708238 L8.50774212,12.6708238 Z M3.73989302,11.0365896 L5.8625,11.0365896 L4.74591779,10.2638418 C4.67540619,10.2148602 4.61312843,10.1561699 4.5611768,10.0897427 L3.73989302,9.03906705 L3.73989302,11.0365896 Z" id="" fill="#FFFFFF" fill-rule="nonzero"></path>
                        <path d="M7.5,1.03433732 L2,1.03433732 C0.8954305,1.03433732 -1.3527075e-16,1.92976782 0,3.03433732 L0,13.0343373 C8.94280938e-16,14.1389068 0.8954305,15.0343373 2,15.0343373 L12,15.0343373 C13.1045695,15.0343373 14,14.1389068 14,13.0343373 L14,7.79295801 L14,7.79295801" id="-2" stroke="#FFFFFF" stroke-width="1.5" stroke-linecap="round"></path>
                    </g>
                </g>
            </g>
        </g>
    </g>
</svg>