<?xml version="1.0" encoding="UTF-8"?>
<svg width="14px" height="14px" viewBox="0 0 14 14" version="1.1" xmlns="http://www.w3.org/2000/svg" xmlns:xlink="http://www.w3.org/1999/xlink">
    <title>编组</title>
    <g id="2023.1.12改动" stroke="none" stroke-width="1" fill="none" fill-rule="evenodd">
        <g id="管理自定义代币备份" transform="translate(-311.000000, -155.000000)" fill="#3548A7" fill-rule="nonzero">
            <g id="编组" transform="translate(311.000000, 155.000000)">
                <path d="M10.4189321,9.60068609 C10.448311,9.62124807 10.4771023,9.64416 10.5029558,9.67118433 L13.8309973,12.998114 C14.0548644,13.221946 14.0583899,13.5973491 13.8292345,13.8264684 C13.7198155,13.9370989 13.5707995,13.9995497 13.4151869,14 C13.2595743,14.0004318 13.1102066,13.9388268 13.000162,13.8288184 L9.67212055,10.5013012 C9.64638207,10.4755729 9.62316486,10.4474412 9.60278635,10.4172908 C8.55295719,11.2807922 7.23519339,11.751897 5.87577945,11.7497076 C2.63058646,11.7497076 0,9.11953556 0,5.87485381 C0,2.63017205 2.63058646,0 5.87577945,0 C9.12097244,0 11.7515589,2.63017205 11.7515589,5.87485381 C11.7515589,7.28893112 11.2521176,8.58668631 10.4189321,9.60068609 Z M5.87577945,10.5747368 C8.47186216,10.5747368 10.576403,8.47052753 10.576403,5.8748538 C10.576403,3.27918007 8.47186216,1.17497076 5.87577945,1.17497076 C3.27969675,1.17497076 1.17515589,3.27918007 1.17515589,5.8748538 C1.17515589,8.47052753 3.27969675,10.5747368 5.87577945,10.5747368 Z" id="形状"></path>
            </g>
        </g>
    </g>
</svg>