<?xml version="1.0" encoding="UTF-8"?>
<svg width="30px" height="30px" viewBox="0 0 30 30" version="1.1" xmlns="http://www.w3.org/2000/svg" xmlns:xlink="http://www.w3.org/1999/xlink">
    <title>编组 6</title>
    <g id="" stroke="none" stroke-width="1" fill="none" fill-rule="evenodd">
        <g id="代币详细备份" transform="translate(-21.000000, -339.000000)">
            <g id="编组-6" transform="translate(21.000000, 339.000000)">
                <g id="编组-4备份" stroke="#000000" stroke-width="1.5">
                    <circle id="椭圆形" cx="15" cy="15" r="14.25"></circle>
                </g>
                <g id="编组-5" transform="translate(10.000000, 10.000000)" fill="#020811" fill-rule="nonzero">
                    <path d="M0.764855019,10.9413973 C0.455531159,10.940906 0.176854635,10.754432 0.0584085945,10.4686838 C-0.0600374462,10.1829356 0.00499206269,9.85399139 0.223258735,9.63480847 L7.9548888,1.90212266 C8.25400417,1.60300731 8.73896599,1.60300732 9.03808135,1.90212268 C9.33719671,2.20123804 9.33719672,2.68619986 9.03808137,2.98531523 L1.3064513,10.7169453 C1.16303412,10.8609329 0.968081049,10.9417263 0.764855019,10.9413973 Z" id="路径" transform="translate(4.631209, 6.309592) rotate(-180.000000) translate(-4.631209, -6.309592) "></path>
                    <path d="M10.1745427,6.50481917 L5.20156975,6.50481917 C4.77849351,6.50481917 4.43552245,6.16184812 4.43552245,5.73877188 L4.43552245,0.765798903 C4.43565182,0.43484642 4.64830064,0.141397314 4.96276075,0.0382255937 C5.27722085,-0.064946127 5.62238119,0.0454904788 5.8185461,0.312040457 L7.8571863,3.08336647 L10.6293569,5.12179553 C10.8959382,5.3179835 11.006366,5.66319834 10.9031388,5.97768114 C10.7999116,6.29216394 10.5063787,6.50481917 10.1753873,6.50481917 L10.1745427,6.50481917 Z" id="路径" transform="translate(7.688460, 3.252410) rotate(-180.000000) translate(-7.688460, -3.252410) "></path>
                </g>
            </g>
        </g>
    </g>
</svg>