<?xml version="1.0" encoding="UTF-8"?>
<svg width="36px" height="36px" viewBox="0 0 36 36" version="1.1" xmlns="http://www.w3.org/2000/svg" xmlns:xlink="http://www.w3.org/1999/xlink">
    <title> 4</title>
    <g id="" stroke="none" stroke-width="1" fill="none" fill-rule="evenodd">
        <g id="" transform="translate(-190.000000, -256.000000)">
            <g id="-4" transform="translate(190.000000, 256.000000)">
                <circle id="" fill="#000000" cx="18" cy="18" r="18"></circle>
                <g id="" transform="translate(8.000000, 8.000000)">
                    <g id="" transform="translate(3.000000, 3.000000)">
                        <path d="M5.38931189,10.5589798 C5.09718761,10.5585056 4.83400655,10.3785492 4.72214656,10.1027883 C4.61028656,9.8270274 4.67170019,9.50958024 4.87783041,9.29805808 L12.1795526,1.83564074 C12.4620361,1.5469799 12.9200322,1.54697991 13.2025156,1.83564076 C13.484999,2.12430161 13.484999,2.59231331 13.2025156,2.88097417 L5.90079338,10.3423727 C5.76535073,10.4813277 5.58123779,10.5592973 5.38931189,10.5589798 Z" fill="#FFFFFF" fill-rule="nonzero" transform="translate(9.040682, 6.089062) rotate(-180.000000) translate(-9.040682, -6.089062) "></path>
                        <polygon fill="#FFFFFF" fill-rule="nonzero" transform="translate(11.928319, 3.138853) rotate(-180.000000) translate(-11.928319, -3.138853) " points="9.58009093 0.739272844 9.58009093 5.53843327 14.2765478 5.53843327 11.5705815 3.5044141 9.58009093 0.739272844"></polygon>
                        <path d="M14.2757854,6.2774664 L9.57932852,6.2774664 C9.17977692,6.2774664 8.85587635,5.94648268 8.85587635,5.53819356 L8.85587635,0.739033132 C8.85599853,0.419647913 9.05682327,0.136455275 9.35379821,0.0368895543 C9.65077314,-0.0626761666 9.97674126,0.0439005212 10.1619987,0.301134195 L12.0872828,2.97559838 L14.7053102,4.94278142 C14.9570685,5.13211234 15.0613561,5.46526142 14.9638688,5.7687526 C14.8663814,6.07224378 14.58917,6.2774664 14.276583,6.2774664 L14.2757854,6.2774664 Z M10.3027807,4.79892071 L12.0715295,4.79892071 L11.1410919,4.0997903 C11.0823352,4.05547503 11.0304397,4.00237599 10.9871489,3.9422771 L10.3027807,2.99169611 L10.3027807,4.79892071 Z" id="" fill="#FFFFFF" fill-rule="nonzero" transform="translate(11.927938, 3.138733) rotate(-180.000000) translate(-11.927938, -3.138733) "></path>
                        <path d="M7.08297167,1.48932011 L2,1.48932011 C0.8954305,1.48932011 -1.3527075e-16,2.38475061 0,3.48932011 L0,13 C-8.67738547e-17,14.1045695 0.8954305,15 2,15 L11.2215471,15 C12.3261166,15 13.2215471,14.1045695 13.2215471,13 L13.2215471,8.0117173 L13.2215471,8.0117173" id="-2" stroke="#FFFFFF" stroke-width="1.5" stroke-linecap="round"></path>
                    </g>
                    <rect id="" x="0" y="0" width="20" height="20"></rect>
                </g>
            </g>
        </g>
    </g>
</svg>