<?xml version="1.0" encoding="UTF-8"?>
<svg width="16px" height="16px" viewBox="0 0 16 16" version="1.1" xmlns="http://www.w3.org/2000/svg" xmlns:xlink="http://www.w3.org/1999/xlink">
    <title>setting-filled</title>
    <g id="" stroke="none" stroke-width="1" fill="none" fill-rule="evenodd">
        <g id="" transform="translate(-124.000000, -313.000000)" fill="#FFFFFF" fill-rule="nonzero">
            <g id="setting-filled" transform="translate(124.000000, 313.000000)">
                <rect id="" opacity="0" x="0" y="0" width="16" height="16"></rect>
                <path d="M8.0078125,6.103125 C7.540625,6.103125 7.103125,6.284375 6.771875,6.615625 C6.4421875,6.946875 6.259375,7.384375 6.259375,7.8515625 C6.259375,8.31875 6.4421875,8.75625 6.771875,9.0875 C7.103125,9.4171875 7.540625,9.6 8.0078125,9.6 C8.475,9.6 8.9125,9.4171875 9.24375,9.0875 C9.5734375,8.75625 9.75625,8.31875 9.75625,7.8515625 C9.75625,7.384375 9.5734375,6.946875 9.24375,6.615625 C8.9125,6.284375 8.475,6.103125 8.0078125,6.103125 Z M14.45,9.7828125 L13.428125,8.909375 C13.4765625,8.6125 13.5015625,8.309375 13.5015625,8.0078125 C13.5015625,7.70625 13.4765625,7.4015625 13.428125,7.10625 L14.45,6.2328125 C14.6078125,6.0984375 14.665625,5.8796875 14.5953125,5.6828125 L14.58125,5.6421875 C14.2984375,4.8546875 13.88125,4.1296875 13.3375,3.490625 L13.309375,3.4578125 C13.175,3.3 12.9578125,3.240625 12.7609375,3.309375 L11.4921875,3.7609375 C11.0234375,3.3765625 10.5015625,3.0734375 9.9359375,2.8625 L9.690625,1.5359375 C9.653125,1.33125 9.4921875,1.171875 9.2875,1.134375 L9.2453125,1.1265625 C8.4328125,0.9796875 7.5765625,0.9796875 6.7640625,1.1265625 L6.721875,1.134375 C6.5171875,1.171875 6.35625,1.33125 6.31875,1.5359375 L6.071875,2.86875 C5.5109375,3.08125 4.9921875,3.3828125 4.5265625,3.7640625 L3.2484375,3.309375 C3.053125,3.240625 2.834375,3.2984375 2.7,3.4578125 L2.671875,3.490625 C2.128125,4.1328125 1.7109375,4.85625 1.428125,5.6421875 L1.4140625,5.6828125 C1.34375,5.878125 1.4015625,6.096875 1.559375,6.2328125 L2.59375,7.115625 C2.5453125,7.409375 2.521875,7.709375 2.521875,8.00625 C2.521875,8.30625 2.5453125,8.60625 2.59375,8.896875 L1.5625,9.7796875 C1.4046875,9.9140625 1.346875,10.1328125 1.4171875,10.3296875 L1.43125,10.3703125 C1.7140625,11.15625 2.13125,11.8828125 2.675,12.521875 L2.703125,12.5546875 C2.8375,12.7125 3.0546875,12.771875 3.2515625,12.703125 L4.5296875,12.2484375 C4.9953125,12.63125 5.5140625,12.934375 6.075,13.14375 L6.321875,14.4765625 C6.359375,14.68125 6.5203125,14.840625 6.725,14.878125 L6.7671875,14.8859375 C7.175,14.959375 7.590625,14.996875 8.0078125,14.996875 C8.425,14.996875 8.8421875,14.959375 9.2484375,14.8859375 L9.290625,14.878125 C9.4953125,14.840625 9.65625,14.68125 9.69375,14.4765625 L9.9390625,13.15 C10.5046875,12.9375 11.0265625,12.6359375 11.4953125,12.2515625 L12.7640625,12.703125 C12.959375,12.771875 13.178125,12.7140625 13.3125,12.5546875 L13.340625,12.521875 C13.884375,11.8796875 14.3015625,11.15625 14.584375,10.3703125 L14.5984375,10.3296875 C14.665625,10.1359375 14.6078125,9.91875 14.45,9.7828125 Z M8.0078125,10.5984375 C6.490625,10.5984375 5.2609375,9.36875 5.2609375,7.8515625 C5.2609375,6.334375 6.490625,5.1046875 8.0078125,5.1046875 C9.525,5.1046875 10.7546875,6.334375 10.7546875,7.8515625 C10.7546875,9.36875 9.525,10.5984375 8.0078125,10.5984375 Z" id=""></path>
            </g>
        </g>
    </g>
</svg>