<?xml version="1.0" encoding="UTF-8"?>
<svg width="15px" height="10px" viewBox="0 0 15 10" version="1.1" xmlns="http://www.w3.org/2000/svg" xmlns:xlink="http://www.w3.org/1999/xlink">
    <title>xianshi</title>
    <g id="页面-1" stroke="none" stroke-width="1" fill="none" fill-rule="evenodd">
        <g id="关闭余额" transform="translate(-215.000000, -206.000000)" fill="#C1C1C1" fill-rule="nonzero">
            <g id="xianshi" transform="translate(215.000000, 206.000000)">
                <path d="M7.2942689,9.12304688 C4.3552064,9.12304688 1.97512828,7.77304688 0.155792338,5.07480469 C-0.0533873491,4.76542969 -0.0516295366,4.359375 0.159307963,4.05 C2.00325328,1.35 4.38157359,8.8817842e-16 7.2942689,8.8817842e-16 C10.2069642,8.8817842e-16 12.5852845,1.35 14.4309877,4.05 C14.6419252,4.359375 14.6419252,4.76542969 14.4345033,5.07480469 C12.6134095,7.77304688 10.2333314,9.12304688 7.2942689,9.12304688 Z M7.2942689,7.2984375 C8.8411439,7.2984375 10.0944642,6.07324219 10.0944642,4.56152344 C10.0944642,3.04980469 8.8411439,1.82460938 7.2942689,1.82460938 C5.7473939,1.82460938 4.49407359,3.04980469 4.49407359,4.56152344 C4.49407359,6.07324219 5.7473939,7.2984375 7.2942689,7.2984375 L7.2942689,7.2984375 Z M7.29778453,5.95019531 C6.52434703,5.95019531 5.89680796,5.33847656 5.89680796,4.58085938 C5.89680796,3.825 6.52434703,3.21152344 7.29778453,3.21152344 C8.07122203,3.21152344 8.69700328,3.825 8.69700328,4.58085938 C8.69700328,5.33671875 8.07122203,5.95019531 7.29778453,5.95019531 Z" id="形状"></path>
            </g>
        </g>
    </g>
</svg>