<?xml version="1.0" encoding="UTF-8"?>
<svg width="30px" height="30px" viewBox="0 0 30 30" version="1.1" xmlns="http://www.w3.org/2000/svg" xmlns:xlink="http://www.w3.org/1999/xlink">
    <title>编组 7</title>
    <g id="" stroke="none" stroke-width="1" fill="none" fill-rule="evenodd">
        <g id="代币详细备份" transform="translate(-21.000000, -400.000000)">
            <g id="编组-7" transform="translate(21.000000, 400.000000)">
                <circle id="椭圆形" stroke="#000000" stroke-width="1.5" cx="15" cy="15" r="14.25"></circle>
                <g id="打勾" transform="translate(7.000000, 7.000000)" fill="#000000" fill-rule="nonzero">
                    <rect id="矩形" opacity="0" x="0" y="0" width="16" height="16"></rect>
                    <path d="M13.339,3.378 L6.627,10.62 L3.656,7.361 C3.49178754,7.17611976 3.25743678,7.06876241 3.01018513,7.06514874 C2.76293348,7.06153506 2.52554536,7.16199776 2.356,7.342 C1.99109063,7.7298982 1.98284506,8.33225871 2.337,8.73 L5.963,12.708 C5.96483422,12.7105179 5.96723124,12.7125724 5.97,12.714 C5.96960275,12.7166519 5.96960275,12.7193481 5.97,12.722 C6.02963548,12.7793556 6.09694458,12.8281547 6.17,12.867 C6.20200327,12.8909519 6.23539488,12.9129903 6.27,12.933 C6.37973112,12.9809383 6.49825531,13.0054606 6.618,13.0050064 C6.73620973,13.0050064 6.85321474,12.9812527 6.962,12.935 C6.99657867,12.9149476 7.02996783,12.8929107 7.062,12.869 C7.1353438,12.8322679 7.20276098,12.7847388 7.262,12.728 C7.26374161,12.7257573 7.2657573,12.7237416 7.268,12.722 C7.26960862,12.7187771 7.27201918,12.7160222 7.275,12.714 L14.65,4.76 C15.0064197,4.36440274 15.0029529,3.76246552 14.642,3.371 C14.4742223,3.18820035 14.23707,3.08472467 13.9889504,3.0860449 C13.7408309,3.08739058 13.504804,3.19340827 13.339,3.378 L13.339,3.378 Z" id="路径"></path>
                </g>
            </g>
        </g>
    </g>
</svg>