<?xml version="1.0" encoding="UTF-8"?>
<svg width="20px" height="20px" viewBox="0 0 20 20" version="1.1" xmlns="http://www.w3.org/2000/svg" xmlns:xlink="http://www.w3.org/1999/xlink">
    <title> 2</title>
    <g id="" stroke="none" stroke-width="1" fill="none" fill-rule="evenodd">
        <g id="" transform="translate(-20.000000, -245.000000)">
            <rect fill="#FFFFFF" x="0" y="0" width="360" height="600"></rect>
            <g id="-2" transform="translate(20.000000, 245.000000)">
                <g id="" transform="translate(2.000000, 2.000000)" fill="#000000" fill-rule="nonzero">
                    <rect id="" opacity="0" x="0" y="0" width="16" height="16"></rect>
                    <path d="M13.3,0 L4.5,0 C3.3,0 2.4,0.9 2.4,2.1 L2.4,2.4 C1.4,2.6 0.7,3.5 0.7,4.6 C0.7,5.3 1,5.9 1.5,6.3 C1,6.7 0.7,7.3 0.7,8 C0.7,8.7 1,9.3 1.5,9.7 C1,10.1 0.7,10.7 0.7,11.4 C0.7,12.5 1.4,13.3 2.4,13.6 L2.4,13.9 C2.4,15 3.3,16 4.5,16 L13.3,16 C14.4,16 15.4,15.1 15.4,13.9 L15.4,2.1 C15.3,0.9 14.4,0 13.3,0 Z M2.4,12.5 C2,12.3 1.7,11.9 1.7,11.4 C1.7,10.9 2,10.5 2.4,10.3 L2.4,12.5 Z M2.4,9.1 C2,8.9 1.7,8.5 1.7,8 C1.7,7.5 2,7.1 2.4,6.9 L2.4,9.1 Z M2.4,5.6 C2,5.5 1.7,5 1.7,4.6 C1.7,4.1 2,3.7 2.4,3.5 L2.4,5.6 Z M12.7,12.4 L5.5,12.4 L5.5,11.4 L12.7,11.4 L12.7,12.4 Z M12.7,8.8 L5.5,8.8 L5.5,7.8 L12.7,7.8 L12.7,8.8 Z M12.7,4.6 L5.5,4.6 L5.5,3.6 L12.7,3.6 L12.7,4.6 Z" id=""></path>
                </g>
                <rect id="" x="0" y="0" width="20" height="20"></rect>
            </g>
        </g>
    </g>
</svg>