<?xml version="1.0" encoding="UTF-8"?>
<svg width="17px" height="17px" viewBox="0 0 17 17" version="1.1" xmlns="http://www.w3.org/2000/svg" xmlns:xlink="http://www.w3.org/1999/xlink">
    <title>设置_填充</title>
    <g id="" stroke="none" stroke-width="1" fill="none" fill-rule="evenodd">
        <g id="代币详细备份" transform="translate(-323.000000, -81.000000)" fill="#000000" fill-rule="nonzero">
            <g id="设置_填充" transform="translate(323.846368, 81.000000)">
                <rect id="矩形" opacity="0" x="0.153632272" y="0" width="16" height="16"></rect>
                <g id="形状" transform="translate(0.000000, 0.348624)">
                    <path d="M15.8095429,9.44229289 C16.262993,7.62843926 15.7641855,6.44461075 15.7641855,6.44461075 L14.0292289,6.35944157 C13.877193,5.81492227 13.6545342,5.30144445 13.371635,4.82643184 L14.5420689,3.49763678 C13.5801374,1.89448251 12.3902671,1.41006178 12.3902671,1.41006178 L11.1015673,2.5782101 C10.6214874,2.29894308 10.1021805,2.08260947 9.55287737,1.93613692 L9.44230095,0.190425716 C7.62851819,-0.263095274 6.44461881,0.235854001 6.44461881,0.235854001 L6.36223132,1.913848 C5.82084806,2.04992024 5.3057402,2.25073311 4.82957594,2.51575506 L3.60972726,1.41004406 C3.60972726,1.41004406 2.419857,1.89446479 1.45792546,3.49761906 C1.7636805,3.84467415 2.36525092,4.24316384 2.40134196,4.75343475 C2.41023627,4.87940788 1.82236165,6.36670584 1.79700757,6.36798152 L0.235791194,6.44459303 C0.235791194,6.44459303 -0.263016339,7.62840382 0.190362909,9.44227517 L1.7376177,9.54032514 C1.88373591,10.1555559 2.11823019,10.7350323 2.42869815,11.2664582 L1.40999897,12.3902413 C1.40999897,12.3902413 1.8944197,13.5801116 3.49757397,14.5420431 L4.65859975,13.5194461 C5.18460401,13.8343257 5.75881825,14.0742239 6.36914124,14.2269508 L6.44461881,15.7641774 C6.44461881,15.7641774 7.62850048,16.2630558 9.44230095,15.8096057 L9.54398306,14.2051757 C10.1620664,14.0413221 10.7421807,13.7881179 11.2712501,13.4577174 L12.5023495,14.5420609 C14.1055747,13.5802002 14.5899954,12.3902591 14.5899954,12.3902591 L13.4685511,11.1531001 C13.7448415,10.6566491 13.9521922,10.1182424 14.0878392,9.5513633 L15.8095429,9.44229289 Z M7.99998833,11.726836 C5.94175391,11.726836 4.27322119,10.0583033 4.27322119,7.99999798 C4.27322119,5.94176357 5.94175391,4.27323084 7.99998833,4.27323084 C10.0582227,4.27323084 11.7268263,5.94176357 11.7268263,7.99999798 C11.7268263,10.058321 10.0582227,11.726836 7.99998833,11.726836 Z"></path>
                </g>
            </g>
        </g>
    </g>
</svg>