<?xml version="1.0" encoding="UTF-8"?>
<svg width="40px" height="40px" viewBox="0 0 40 40" version="1.1" xmlns="http://www.w3.org/2000/svg" xmlns:xlink="http://www.w3.org/1999/xlink">
    <title></title>
    <g id="" stroke="none" stroke-width="1" fill="none" fill-rule="evenodd">
        <g id="" transform="translate(-20.000000, -389.000000)">
            <g id="top" transform="translate(20.000000, 389.000000)">
                <g id="-9" fill="#FFE040">
                    <circle id="" cx="20" cy="20" r="20"></circle>
                </g>
                <g id="" transform="translate(7.142857, 10.000000)" fill="#FFFFFF" fill-rule="nonzero">
                    <g id="TOP">
                        <path d="M23.6948021,0.787624514 C23.1434835,0.254077921 22.3968517,-0.0290068667 21.6303829,0.00490173163 L12.2763148,0.00490173163 C11.507912,-0.0415219715 10.7564423,0.243504168 10.2121087,0.787837716 C9.66777519,1.33217126 9.38274905,2.08364099 9.42917275,2.85204379 L9.42917275,19.9348961 C9.40222498,20.969757 9.93891631,21.9377519 10.8309104,22.4631181 C11.7229046,22.9884844 12.829725,22.9884844 13.7217192,22.4631181 C14.6137133,21.9377519 15.1504046,20.969757 15.1234569,19.9348961 L15.1234569,7.12179174 C15.065863,6.72938535 15.1971967,6.33285234 15.4776426,6.05240642 C15.7580885,5.7719605 16.1546215,5.64062681 16.5470279,5.69822071 L21.631348,5.69822071 C22.7804057,5.66979933 23.8059395,4.97003142 24.2513891,3.91044847 C24.6968388,2.85086551 24.4793579,1.62853308 23.6957673,0.787624514 L23.6948021,0.787624514 Z M5.80027304,0.787624514 C5.24901691,0.253979416 4.50234108,-0.0291220798 3.73585377,0.00490173163 L2.92224674,0.00490173163 C1.88738584,-0.0220460344 0.919391007,0.514645297 0.394024717,1.40663942 C-0.131341572,2.29863355 -0.131341572,3.40545403 0.394024717,4.29744815 C0.919391007,5.18944228 1.88738584,5.72613361 2.92224674,5.69918584 L3.73585377,5.69918584 C4.88491151,5.67076447 5.91044521,4.97099656 6.35589489,3.9114136 C6.80134457,2.85183064 6.58386365,1.62949821 5.80027304,0.788589647 L5.80027304,0.787624514 Z" id="_28"></path>
                    </g>
                </g>
            </g>
        </g>
    </g>
</svg>