<?xml version="1.0" encoding="UTF-8"?>
<svg width="20px" height="20px" viewBox="0 0 20 20" version="1.1" xmlns="http://www.w3.org/2000/svg" xmlns:xlink="http://www.w3.org/1999/xlink">
    <title></title>
    <g id="" stroke="none" stroke-width="1" fill="none" fill-rule="evenodd">
        <g id="" transform="translate(-20.000000, -135.000000)">
            <rect fill="#FFFFFF" x="0" y="0" width="360" height="600"></rect>
            <g id="" transform="translate(20.000000, 135.000000)" fill="#000000" fill-rule="nonzero">
                <rect id="" opacity="0" x="0" y="0" width="20" height="20"></rect>
                <path d="M14.3241602,18.1341992 L16.5687891,15.2841016 L14.3241602,15.2841016 L14.3241602,18.1341992 Z M15.2580273,1.92623047 L9.14585937,1.92623047 L9.14585937,9.15947266 L7.06654297,7.08505859 L4.98722656,9.15947266 L4.98722656,1.92623047 L3.83275391,1.92623047 C3.1053125,1.92623047 2.51517578,2.51517578 2.51363281,3.24261719 L2.51363281,16.8178125 C2.51515625,17.5452539 3.1053125,18.1341992 3.83275391,18.1341992 L13.0557227,18.1341992 L13.0557227,14.415332 C13.0557235,14.298977 13.1019612,14.187391 13.1842578,14.1051367 C13.2665158,14.0228456 13.3780993,13.9766089 13.4944531,13.9766016 L16.5687891,13.9766016 L16.5687891,3.24261719 C16.5672461,2.51841797 15.9822461,1.93083984 15.2580273,1.92623047 L15.2580273,1.92623047 Z" id=""></path>
            </g>
        </g>
    </g>
</svg>