<?xml version="1.0" encoding="UTF-8"?>
<svg width="40px" height="40px" viewBox="0 0 40 40" version="1.1" xmlns="http://www.w3.org/2000/svg" xmlns:xlink="http://www.w3.org/1999/xlink">
    <title>vote</title>
    <g id="2022.12.1改动" stroke="none" stroke-width="1" fill="none" fill-rule="evenodd">
        <g id="交易部署2" transform="translate(-160.000000, -182.000000)">
            <g id="vote" transform="translate(160.000000, 182.000000)">
                <circle id="椭圆形" fill="#3548A7" cx="20" cy="20" r="20"></circle>
                <g id="编组" transform="translate(11.000000, 11.000000)" fill="#FFFFFF" fill-rule="nonzero">
                    <path d="M3.56250001,4 L3.56250001,8.72727273 L2.96875,8.72727273 C2.64693749,8.72727273 2.37500001,8.99200001 2.37500001,9.31818182 C2.37500001,9.63490908 2.641,9.9090909 2.96875,9.90909092 L16.03125,9.90909092 C16.3530625,9.90909092 16.625,9.64436365 16.625,9.31818182 L16.6155,9.21418182 C16.5622921,8.93401457 16.3177333,8.7302013 16.03125,8.72727273 L15.4375,8.72727273 L15.4375,4 L17.803,4 C18.4644375,4 19,4.5259091 19,5.17709092 L19,15.8229091 C19,16.4729091 18.4715625,17 17.8125,17 L1.1875,17 C0.531999995,17 0,16.4740909 0,15.8229091 L0,5.17709092 C0,4.52709092 0.526062505,4 1.1839375,4 L3.56250001,4 Z M15.4375,13.4545455 L3.56250001,13.4545455 L3.56250001,15.2272727 L15.4375,15.2272727 L15.4375,13.4545455 Z M14.25,4 L14.25,8.72727273 L4.74999999,8.72727273 L4.74999999,4 L14.25,4 L14.25,4 Z" id="形状"></path>
                    <polygon id="路径" points="5 0 15 0 15 6 5 6"></polygon>
                </g>
            </g>
        </g>
    </g>
</svg>